PathFileType	4	(X/Y/Z)	Kaydara																																																																																																																									
DataRate	CameraRate	NumFrames	NumMarkers	Units	OrigDataRate	OrigDataStartFrame	OrigNumFrames																																																																																																																					
30	30	8	41	mm	30	278	300																																																																																																																					
Frame#	Time	PAIB_LFHD			PAIB_RFHD			PAIB_LBHD			PAIB_RBHD			PAIB_LFTShould			PAIB_RFTShould			PAIB_LRRShould			PAIB_RRRShould			PAIB_T10			PAIB_STRN			PAIB_TRUN			PAIB_LSHO			PAIB_LUPA			PAIB_LELB			PAIB_LFRM			PAIB_LWRA			PAIB_LWRB			PAIB_LFIN			PAIB_RSHO			PAIB_RUPA			PAIB_RELB			PAIB_RFRM			PAIB_RWRA			PAIB_RWRB			PAIB_RFIN			PAIB_LFWT			PAIB_RFWT			PAIB_LBWT			PAIB_RBWT			PAIB_LTHI			PAIB_LKNE			PAIB_LSHN			PAIB_LANK			PAIB_LHEE			PAIB_LTOE			PAIB_RTHI			PAIB_RKNE			PAIB_RSHN			PAIB_RANK			PAIB_RHEE			PAIB_RTOE		
		X1	Y1	Z1	X2	Y2	Z2	X3	Y3	Z3	X4	Y4	Z4	X5	Y5	Z5	X6	Y6	Z6	X7	Y7	Z7	X8	Y8	Z8	X9	Y9	Z9	X10	Y10	Z10	X11	Y11	Z11	X12	Y12	Z12	X13	Y13	Z13	X14	Y14	Z14	X15	Y15	Z15	X16	Y16	Z16	X17	Y17	Z17	X18	Y18	Z18	X19	Y19	Z19	X20	Y20	Z20	X21	Y21	Z21	X22	Y22	Z22	X23	Y23	Z23	X24	Y24	Z24	X25	Y25	Z25	X26	Y26	Z26	X27	Y27	Z27	X28	Y28	Z28	X29	Y29	Z29	X30	Y30	Z30	X31	Y31	Z31	X32	Y32	Z32	X33	Y33	Z33	X34	Y34	Z34	X35	Y35	Z35	X36	Y36	Z36	X37	Y37	Z37	X38	Y38	Z38	X39	Y39	Z39	X40	Y40	Z40	X41	Y41	Z41
																																																																																																																												
263	9.233	304.59505	1544.8584	2228.34137	120.97267	1556.07895	2212.59705	325.17807	1581.96564	2106.13708	122.27425	1599.17068	2105.05142	276.2878	1336.5451	2113.75992	155.75628	1334.85596	2110.00427	291.68642	1429.71375	1986.59164	137.15181	1428.21945	1990.20782	215.52261	1290.51254	1873.43613	222.81727	1263.18413	2133.15903	222.13375	1159.0789	2131.14578	406.82144	1366.64841	2053.0278	458.53985	1140.52963	2054.93835	481.12553	1052.98088	2021.88385	486.48506	942.5489	2080.84869	408.89248	845.62065	2174.84314	456.98368	815.37804	2115.96207	456.45355	789.636	2183.5376	27.81286	1350.61646	2055.6665	-39.06594	1190.88165	1978.77396	-62.28426	1077.52602	1947.50107	-75.9093	937.34718	1969.17984	-11.72996	829.48708	2060.83099	-79.29338	816.63147	2012.42523	-69.16444	777.63489	2074.78073	334.88602	902.32727	2065.91278	100.53907	909.09721	2080.03769	255.0461	964.23935	1855.89157	110.77868	956.92024	1861.73279	298.37564	717.53189	1818.53287	336.1182	454.83574	1848.50464	302.49104	269.69168	1807.44171	286.33921	113.89012	1675.06943	227.66653	118.90554	1628.25775	279.55669	33.76838	1829.79538	59.46163	640.1902	1943.37891	59.73132	432.02908	2098.647	114.96387	272.79985	2185.88135	91.75984	51.96925	2176.51962	159.18743	51.24753	2135.87662	89.91982	64.45762	2349.58069
264	9.267	297.60132	1545.68695	2253.72086	113.96047	1556.07529	2239.48898	316.98881	1582.36801	2130.96786	114.04857	1598.65143	2131.75522	270.38597	1335.95764	2140.336	148.74969	1331.72516	2134.98947	283.45663	1428.51242	2011.68289	128.4852	1425.33096	2017.25296	206.86586	1287.95166	1900.60928	217.33057	1262.35298	2160.68298	217.40717	1158.2502	2159.40048	400.23186	1365.04776	2076.8277	450.04101	1137.46292	2075.58319	471.53004	1050.38528	2041.48132	477.98038	938.28415	2095.42755	401.31058	836.00105	2184.31992	449.22031	809.23737	2124.65057	449.4305	780.09911	2190.5249	20.56467	1346.57043	2084.12354	-45.64147	1185.16548	2009.92325	-67.82393	1071.00616	1980.33508	-81.06421	931.14471	2000.08606	-15.6402	821.69861	2088.74771	-84.16049	809.79156	2041.27625	-72.74922	769.51607	2102.67776	331.11477	899.7937	2096.04858	97.23832	909.75281	2112.43561	250.19749	961.37161	1886.3382	105.14353	956.88789	1892.73544	293.46561	718.06656	1849.22501	334.07799	455.18242	1872.44247	301.21918	271.56475	1822.76596	288.22191	122.63854	1682.12738	230.0281	129.6203	1634.88907	280.04101	33.45429	1830.85358	55.24448	641.80122	1970.66589	53.37257	430.23212	2120.15579	112.67956	270.06317	2204.9913	92.00451	55.27553	2186.16547	156.62279	53.14358	2147.94449	92.72993	44.81779	2374.77081
265	9.3	290.21091	1549.73175	2280.62088	106.28725	1559.12689	2268.20099	308.38282	1586.67953	2158.06	105.23001	1601.72089	2160.44952	264.61399	1339.58725	2167.81052	142.80103	1334.18182	2163.31467	275.78739	1432.07596	2038.48953	120.66081	1426.87805	2045.59952	199.5879	1290.57098	1928.44131	212.2924	1265.87418	2188.94089	213.23059	1161.77528	2188.37067	393.55148	1367.84271	2100.95413	440.47657	1139.02527	2097.20612	460.43369	1052.39418	2061.49582	468.81096	938.58078	2109.34937	394.21555	829.57695	2191.99951	442.49321	808.06236	2131.1264	443.53039	774.3676	2194.82498	14.03146	1346.86569	2113.06076	-50.62362	1183.13278	2042.71881	-71.79559	1068.36449	2015.29785	-85.66372	928.91136	2032.6236	-20.42683	816.8602	2117.99713	-89.75843	806.94046	2071.14944	-77.84029	764.93637	2131.56372	325.12756	900.35072	2125.37445	91.84615	916.97639	2141.54144	247.54789	963.15987	1915.91461	102.25171	964.25865	1921.72867	287.87144	718.11615	1881.1467	330.85514	454.86164	1903.51654	299.53678	273.99052	1843.21396	290.93771	134.41661	1691.77643	233.2534	144.29014	1645.01068	280.61741	32.99671	1832.34955	45.03077	650.41656	1996.68961	50.09376	435.4002	2141.2088	114.92278	271.01116	2217.47345	89.81627	52.51794	2197.80273	155.00577	54.58685	2148.69904	97.1134	40.74549	2374.81277
266	9.333	282.30478	1555.8252	2308.93158	98.23936	1563.15247	2296.36353	300.00822	1592.97409	2186.33362	96.72165	1605.87494	2188.69247	258.9846	1346.04324	2195.63004	137.78994	1339.41605	2191.72089	269.09361	1438.66669	2066.82892	114.31907	1431.9574	2074.49173	193.82797	1296.56418	1956.66138	207.66336	1271.95068	2216.90414	209.39236	1167.80525	2216.4473	388.22372	1375.60852	2128.8002	431.65947	1145.77957	2120.32761	449.77512	1059.69704	2081.17264	460.09117	944.23599	2122.7005	387.97699	828.71399	2199.17465	436.99245	812.08153	2136.43188	438.21938	773.97514	2197.73499	8.71754	1351.40503	2142.742	-53.66461	1185.34721	2076.72562	-73.93708	1070.61447	2050.46753	-89.35535	931.72874	2066.00067	-25.80604	817.01775	2149.48166	-95.52439	809.32014	2102.6326	-84.07263	765.62508	2162.07504	318.71885	905.84	2152.85294	85.42378	924.32945	2168.79501	243.17678	968.79494	1943.70361	98.10773	971.96175	1949.81766	282.13308	716.51001	1912.43042	329.89643	454.47876	1943.03009	299.66095	277.52472	1869.51233	292.34529	150.14031	1707.0343	234.06094	163.59535	1661.62262	280.82811	32.46378	1834.06982	37.88551	657.87895	2020.71777	49.64842	443.27168	2161.87439	112.01873	271.49189	2225.34744	88.61634	55.69023	2194.83047	153.79457	56.40851	2148.40622	96.54451	37.76619	2373.82355
267	9.367	274.501	1561.4386	2337.05963	90.39939	1565.90866	2322.87277	292.61551	1598.84766	2214.46091	89.15958	1608.5582	2215.18921	253.93524	1351.63452	2222.85934	133.2583	1344.35028	2219.63455	263.12914	1444.92264	2095.38269	108.59591	1437.35229	2103.79303	187.64303	1302.70508	1984.86206	203.40761	1277.04178	2243.84567	205.58807	1172.8849	2243.00018	383.28491	1383.31573	2158.1871	426.10161	1153.00812	2143.77518	442.79175	1067.99805	2101.21201	453.88073	951.21567	2137.34192	382.63805	831.26495	2208.44559	429.90562	818.65623	2144.64615	432.28546	775.92957	2202.76474	3.99652	1356.90765	2173.58078	-56.74299	1189.43909	2109.84604	-76.38958	1074.9894	2083.58078	-92.68226	936.27808	2099.36844	-30.87796	820.96085	2183.70163	-100.3056	814.35097	2136.20087	-90.00191	770.02632	2195.39215	313.86471	911.8631	2176.85028	80.18956	927.85088	2195.87753	234.42982	974.50661	1968.98697	90.15121	977.18224	1977.32544	276.2361	712.27501	1942.66998	330.55779	452.98145	1988.53256	301.84128	281.27752	1902.46368	293.62064	167.00493	1729.84497	234.94497	184.8	1686.47736	279.07906	32.69596	1838.18222	36.13912	663.01102	2037.64938	43.88	439.10885	2169.26956	109.17467	270.7	2232.005	90.33933	53.53699	2194.21722	154.4462	57.51472	2148.4549	99.41237	35.66214	2376.32507
268	9.4	267.63931	1565.05844	2364.31717	83.61324	1566.68793	2348.26385	286.23203	1602.84149	2241.93192	82.69463	1609.5282	2240.62958	249.9678	1354.38828	2248.59665	129.34171	1346.96838	2246.47736	257.73565	1448.95004	2122.37701	103.18903	1440.92392	2132.28104	180.63131	1307.04254	2011.65115	199.5993	1279.46556	2269.50287	202.20684	1175.37918	2268.22342	378.39771	1388.08319	2185.97534	422.04624	1157.93655	2167.24533	439.82403	1074.21593	2122.45438	450.36964	956.47713	2155.16037	377.47375	833.88191	2220.02289	426.20018	823.81294	2157.66968	425.77515	777.38754	2213.04642	-0.55453	1360.98572	2203.84186	-61.51905	1192.97646	2141.52832	-81.21113	1078.39333	2115.63187	-96.89224	939.62524	2133.09296	-34.94668	825.79285	2219.58832	-103.8188	818.05466	2171.51932	-94.23415	774.90044	2231.55273	309.6019	915.64186	2199.37378	75.64808	928.09349	2221.42242	226.43108	977.82967	1992.52228	82.38225	980.47646	2003.22906	270.05283	706.87607	1972.05856	331.07445	451.19217	2033.12729	301.89621	283.32865	1939.43527	295.25867	181.14075	1759.9733	236.93195	203.97863	1717.74078	275.49732	34.39999	1847.30789	34.01742	666.45279	2053.39066	39.99019	438.57956	2173.47	107.53772	269.62423	2237.60101	90.88503	53.78669	2197.22626	155.55647	58.30082	2149.4426	101.28385	34.11292	2378.2222
269	9.433	262.07193	1566.71906	2390.88608	78.04341	1566.86554	2373.93036	280.9885	1605.00381	2268.61282	77.38111	1609.98322	2266.33362	246.6198	1355.67886	2272.9509	125.62141	1347.83646	2272.07535	252.57818	1450.86655	2146.95282	98.07198	1442.60422	2159.0773	173.97076	1309.51797	2036.57532	196.17212	1280.14908	2293.8237	198.66154	1176.06201	2292.07397	373.49651	1389.71725	2209.69101	419.13853	1160.19691	2189.87305	438.90118	1077.34383	2144.09012	448.07602	959.0316	2175.69656	372.12498	835.91194	2235.82809	424.58614	826.27335	2175.67291	419.29668	778.50731	2230.12344	-4.75668	1362.77466	2231.84265	-67.69089	1194.94202	2172.0372	-87.95239	1079.88556	2147.54929	-102.13539	941.04874	2168.11691	-37.80879	830.53024	2257.19788	-106.60697	819.9044	2209.18182	-96.39479	779.03046	2270.69901	304.98573	917.60071	2221.14578	71.00944	928.85643	2244.38324	222.09249	978.65662	2014.16855	77.91506	983.22495	2026.17401	265.60312	699.50554	2004.51019	333.05038	450.00534	2075.40863	302.42577	286.34464	1975.2742	294.22054	194.63196	1790.99731	236.43024	220.39423	1750.60974	275.02071	38.19594	1867.80334	28.89615	670.15984	2070.52048	37.61507	440.11501	2188.35114	105.13356	268.88391	2242.79831	90.88032	54.01825	2196.87073	155.57443	59.28268	2149.79965	101.55627	33.39255	2378.64838
270	9.467	258.00369	1566.41785	2416.57578	74.06958	1566.13312	2399.56039	276.86419	1605.67352	2294.4017	73.24118	1610.16693	2292.39349	243.71132	1355.755	2295.49103	122.49961	1348.01514	2296.34598	247.76043	1451.99097	2169.73312	93.4586	1443.36472	2184.09836	168.18459	1311.3089	2059.73877	193.48511	1280.22827	2316.72058	195.77204	1176.08894	2314.2749	369.09954	1389.90479	2229.68277	416.94359	1161.0804	2210.01236	437.98706	1078.3429	2164.86557	445.78907	960.01915	2197.47513	367.24415	837.61559	2255.48813	422.76947	827.41646	2197.75864	414.2487	780.14885	2252.56836	-7.82452	1363.35007	2258.06976	-73.37505	1195.82092	2201.39313	-95.16522	1080.44823	2179.09622	-107.55486	941.96449	2204.42184	-39.59133	835.7653	2295.84274	-109.51728	822.31461	2249.87961	-96.99071	784.02756	2312.74078	300.10368	919.44077	2242.52609	66.12449	930.14854	2265.7373	219.26418	978.84949	2035.05402	74.64548	985.64537	2047.63901	264.83307	694.04251	2036.2648	334.70577	449.30241	2116.93878	302.52602	289.43003	2013.56735	290.95848	204.904	1825.70694	231.79609	230.96205	1788.11066	278.43941	42.39769	1898.49564	24.81652	672.90375	2086.57898	34.88439	440.6551	2199.26651	103.63112	268.14756	2248.76205	90.59983	54.14521	2197.85751	154.87578	60.48037	2149.99481	101.83914	32.91688	2378.97736
